<?xml version="1.0" encoding="UTF-8" standalone="no"?>
<!DOCTYPE svg PUBLIC "-//W3C//DTD SVG 1.1//EN"
 "http://www.w3.org/Graphics/SVG/1.1/DTD/svg11.dtd">
<!-- Generated by graphviz version 15.1.0 (20260618.0150)
 -->
<!-- Title: AWS Network Firewall Security Hub Pages: 1 -->
<svg width="1232pt" height="1008pt"
 viewBox="0.00 0.00 1232.00 1008.00" xmlns="http://www.w3.org/2000/svg" xmlns:xlink="http://www.w3.org/1999/xlink">
<g id="graph0" class="graph" transform="scale(0.68208 0.68208) rotate(0) translate(21.6 1456.23)">
<title>AWS Network Firewall Security Hub</title>
<polygon fill="white" stroke="none" points="-21.6,21.6 -21.6,-1456.23 1784,-1456.23 1784,21.6 -21.6,21.6"/>
<text xml:space="preserve" text-anchor="middle" x="881.2" y="-6.45" font-family="Helvetica,sans-Serif" font-size="14.00" fill="#2d3436">AWS Network Firewall Security Hub</text>
<g id="clust1" class="cluster">
<title>cluster_AWS Region</title>
<path fill="#e5f5fd" stroke="#aeb6be" d="M20,-74.63C20,-74.63 1542.1,-74.63 1542.1,-74.63 1548.1,-74.63 1554.1,-80.63 1554.1,-86.63 1554.1,-86.63 1554.1,-1414.63 1554.1,-1414.63 1554.1,-1420.63 1548.1,-1426.63 1542.1,-1426.63 1542.1,-1426.63 20,-1426.63 20,-1426.63 14,-1426.63 8,-1420.63 8,-1414.63 8,-1414.63 8,-86.63 8,-86.63 8,-80.63 14,-74.63 20,-74.63"/>
<text xml:space="preserve" text-anchor="middle" x="48.25" y="-1411.23" font-family="Sans-Serif" font-size="12.00" fill="#2d3436">AWS Region</text>
</g>
<g id="clust2" class="cluster">
<title>cluster_Production VPC
(private app + TGW subnets, 2 AZs)</title>
<path fill="#ebf3e7" stroke="#aeb6be" d="M28,-340.63C28,-340.63 381.1,-340.63 381.1,-340.63 387.1,-340.63 393.1,-346.63 393.1,-352.63 393.1,-352.63 393.1,-578.63 393.1,-578.63 393.1,-584.63 387.1,-590.63 381.1,-590.63 381.1,-590.63 28,-590.63 28,-590.63 22,-590.63 16,-584.63 16,-578.63 16,-578.63 16,-352.63 16,-352.63 16,-346.63 22,-340.63 28,-340.63"/>
<text xml:space="preserve" text-anchor="middle" x="120" y="-575.23" font-family="Sans-Serif" font-size="12.00" fill="#2d3436">Production VPC</text>
<text xml:space="preserve" text-anchor="middle" x="120" y="-559.48" font-family="Sans-Serif" font-size="12.00" fill="#2d3436">(private app + TGW subnets, 2 AZs)</text>
</g>
<g id="clust3" class="cluster">
<title>cluster_Development VPC
(private app + TGW subnets, 2 AZs)</title>
<path fill="#ebf3e7" stroke="#aeb6be" d="M28,-82.63C28,-82.63 381.1,-82.63 381.1,-82.63 387.1,-82.63 393.1,-88.63 393.1,-94.63 393.1,-94.63 393.1,-320.63 393.1,-320.63 393.1,-326.63 387.1,-332.63 381.1,-332.63 381.1,-332.63 28,-332.63 28,-332.63 22,-332.63 16,-326.63 16,-320.63 16,-320.63 16,-94.63 16,-94.63 16,-88.63 22,-82.63 28,-82.63"/>
<text xml:space="preserve" text-anchor="middle" x="120" y="-317.23" font-family="Sans-Serif" font-size="12.00" fill="#2d3436">Development VPC</text>
<text xml:space="preserve" text-anchor="middle" x="120" y="-301.48" font-family="Sans-Serif" font-size="12.00" fill="#2d3436">(private app + TGW subnets, 2 AZs)</text>
</g>
<g id="clust4" class="cluster">
<title>cluster_Shared Services VPC
(shared + TGW subnets, 2 AZs)</title>
<path fill="#ebf3e7" stroke="#aeb6be" d="M28,-802.63C28,-802.63 381.1,-802.63 381.1,-802.63 387.1,-802.63 393.1,-808.63 393.1,-814.63 393.1,-814.63 393.1,-1040.63 393.1,-1040.63 393.1,-1046.63 387.1,-1052.63 381.1,-1052.63 381.1,-1052.63 28,-1052.63 28,-1052.63 22,-1052.63 16,-1046.63 16,-1040.63 16,-1040.63 16,-814.63 16,-814.63 16,-808.63 22,-802.63 28,-802.63"/>
<text xml:space="preserve" text-anchor="middle" x="108" y="-1037.23" font-family="Sans-Serif" font-size="12.00" fill="#2d3436">Shared Services VPC</text>
<text xml:space="preserve" text-anchor="middle" x="108" y="-1021.48" font-family="Sans-Serif" font-size="12.00" fill="#2d3436">(shared + TGW subnets, 2 AZs)</text>
</g>
<g id="clust5" class="cluster">
<title>cluster_Inspection VPC</title>
<path fill="#ebf3e7" stroke="#aeb6be" d="M548.6,-934.63C548.6,-934.63 1534.1,-934.63 1534.1,-934.63 1540.1,-934.63 1546.1,-940.63 1546.1,-946.63 1546.1,-946.63 1546.1,-1382.63 1546.1,-1382.63 1546.1,-1388.63 1540.1,-1394.63 1534.1,-1394.63 1534.1,-1394.63 548.6,-1394.63 548.6,-1394.63 542.6,-1394.63 536.6,-1388.63 536.6,-1382.63 536.6,-1382.63 536.6,-946.63 536.6,-946.63 536.6,-940.63 542.6,-934.63 548.6,-934.63"/>
<text xml:space="preserve" text-anchor="middle" x="584.73" y="-1379.23" font-family="Sans-Serif" font-size="12.00" fill="#2d3436">Inspection VPC</text>
</g>
<g id="clust6" class="cluster">
<title>cluster_AZ&#45;a</title>
<path fill="#ece8f6" stroke="#aeb6be" d="M776.65,-942.63C776.65,-942.63 1305.3,-942.63 1305.3,-942.63 1311.3,-942.63 1317.3,-948.63 1317.3,-954.63 1317.3,-954.63 1317.3,-1136.63 1317.3,-1136.63 1317.3,-1142.63 1311.3,-1148.63 1305.3,-1148.63 1305.3,-1148.63 776.65,-1148.63 776.65,-1148.63 770.65,-1148.63 764.65,-1142.63 764.65,-1136.63 764.65,-1136.63 764.65,-954.63 764.65,-954.63 764.65,-948.63 770.65,-942.63 776.65,-942.63"/>
<text xml:space="preserve" text-anchor="middle" x="785.03" y="-1133.23" font-family="Sans-Serif" font-size="12.00" fill="#2d3436">AZ&#45;a</text>
</g>
<g id="clust7" class="cluster">
<title>cluster_AZ&#45;b</title>
<path fill="#ece8f6" stroke="#aeb6be" d="M776.65,-1156.63C776.65,-1156.63 1305.3,-1156.63 1305.3,-1156.63 1311.3,-1156.63 1317.3,-1162.63 1317.3,-1168.63 1317.3,-1168.63 1317.3,-1350.63 1317.3,-1350.63 1317.3,-1356.63 1311.3,-1362.63 1305.3,-1362.63 1305.3,-1362.63 776.65,-1362.63 776.65,-1362.63 770.65,-1362.63 764.65,-1356.63 764.65,-1350.63 764.65,-1350.63 764.65,-1168.63 764.65,-1168.63 764.65,-1162.63 770.65,-1156.63 776.65,-1156.63"/>
<text xml:space="preserve" text-anchor="middle" x="785.4" y="-1347.23" font-family="Sans-Serif" font-size="12.00" fill="#2d3436">AZ&#45;b</text>
</g>
<g id="clust8" class="cluster">
<title>cluster_Logging &amp; Monitoring</title>
<path fill="#ebf3e7" stroke="#aeb6be" d="M1001.7,-208.63C1001.7,-208.63 1534.1,-208.63 1534.1,-208.63 1540.1,-208.63 1546.1,-214.63 1546.1,-220.63 1546.1,-220.63 1546.1,-792.63 1546.1,-792.63 1546.1,-798.63 1540.1,-804.63 1534.1,-804.63 1534.1,-804.63 1001.7,-804.63 1001.7,-804.63 995.7,-804.63 989.7,-798.63 989.7,-792.63 989.7,-792.63 989.7,-220.63 989.7,-220.63 989.7,-214.63 995.7,-208.63 1001.7,-208.63"/>
<text xml:space="preserve" text-anchor="middle" x="1055.45" y="-789.23" font-family="Sans-Serif" font-size="12.00" fill="#2d3436">Logging &amp; Monitoring</text>
</g>
<!-- 0ac075800cd84596857a25d9588fb0fe -->
<g id="node1" class="node">
<title>0ac075800cd84596857a25d9588fb0fe</title>
<image xlink:href="C:\Users\rites\AppData\Local\Programs\Python\Python312\Lib\site-packages\resources/aws/general\internet-alt1.png" width="100.8px" height="100.8px" preserveAspectRatio="xMinYMin meet" x="1661.6" y="-1191.03"/>
<text xml:space="preserve" text-anchor="middle" x="1712" y="-1075.08" font-family="Helvetica,sans-Serif" font-size="12.00" fill="#2d3436">Internet</text>
</g>
<!-- 5661813f53e4437d9188613c17dcea30 -->
<g id="node2" class="node">
<title>5661813f53e4437d9188613c17dcea30</title>
<image xlink:href="C:\Users\rites\AppData\Local\Programs\Python\Python312\Lib\site-packages\resources/aws/compute\ec2.png" width="100.8px" height="100.8px" preserveAspectRatio="xMinYMin meet" x="24" y="-507.032"/>
<text xml:space="preserve" text-anchor="middle" x="74.4" y="-390.93" font-family="Helvetica,sans-Serif" font-size="12.00" fill="#2d3436">Optional</text>
<text xml:space="preserve" text-anchor="middle" x="74.4" y="-376.68" font-family="Helvetica,sans-Serif" font-size="12.00" fill="#2d3436">Test Workload</text>
</g>
<!-- 1aba686fd7cf43c5abd29bcb093533f9 -->
<g id="node3" class="node">
<title>1aba686fd7cf43c5abd29bcb093533f9</title>
<image xlink:href="C:\Users\rites\AppData\Local\Programs\Python\Python312\Lib\site-packages\resources/aws/network\endpoint.png" width="100.8px" height="100.8px" preserveAspectRatio="xMinYMin meet" x="284.3" y="-496.032"/>
<text xml:space="preserve" text-anchor="middle" x="334.7" y="-379.78" font-family="Helvetica,sans-Serif" font-size="12.00" fill="#2d3436">SSM PrivateLink</text>
<text xml:space="preserve" text-anchor="middle" x="334.7" y="-365.53" font-family="Helvetica,sans-Serif" font-size="12.00" fill="#2d3436">ssm / ssmmessages</text>
<text xml:space="preserve" text-anchor="middle" x="334.7" y="-351.28" font-family="Helvetica,sans-Serif" font-size="12.00" fill="#2d3436">/ ec2messages</text>
</g>
<!-- 5661813f53e4437d9188613c17dcea30&#45;&gt;1aba686fd7cf43c5abd29bcb093533f9 -->
<g id="edge29" class="edge">
<title>5661813f53e4437d9188613c17dcea30&#45;&gt;1aba686fd7cf43c5abd29bcb093533f9</title>
<path fill="none" stroke="#7b8894" stroke-dasharray="1,5" d="M124.59,-454.54C166.87,-452.74 228,-450.13 273.26,-448.21"/>
<polygon fill="#7b8894" stroke="#7b8894" points="273.34,-451.71 283.18,-447.78 273.04,-444.71 273.34,-451.71"/>
</g>
<!-- 9b2e628153a448e78599b309f61fb129 -->
<g id="node8" class="node">
<title>9b2e628153a448e78599b309f61fb129</title>
<image xlink:href="C:\Users\rites\AppData\Local\Programs\Python\Python312\Lib\site-packages\resources/aws/network\transit-gateway.png" width="100.8px" height="100.8px" preserveAspectRatio="xMinYMin meet" x="284.3" y="-732.032"/>
<text xml:space="preserve" text-anchor="middle" x="334.7" y="-615.93" font-family="Helvetica,sans-Serif" font-size="12.00" fill="#2d3436">Transit</text>
<text xml:space="preserve" text-anchor="middle" x="334.7" y="-601.68" font-family="Helvetica,sans-Serif" font-size="12.00" fill="#2d3436">Gateway</text>
</g>
<!-- 5661813f53e4437d9188613c17dcea30&#45;&gt;9b2e628153a448e78599b309f61fb129 -->
<g id="edge1" class="edge">
<title>5661813f53e4437d9188613c17dcea30&#45;&gt;9b2e628153a448e78599b309f61fb129</title>
<path fill="none" stroke="#7b8894" d="M124.59,-499.48C167.77,-537.09 230.61,-591.83 276.12,-631.47"/>
<polygon fill="#7b8894" stroke="#7b8894" points="273.71,-634.02 283.55,-637.95 278.31,-628.74 273.71,-634.02"/>
<text xml:space="preserve" text-anchor="middle" x="204.55" y="-600.05" font-family="Sans-Serif" font-size="13.00" fill="#2d3436">default route</text>
</g>
<!-- dec8c85d7a7640de82f43c8239a19037 -->
<g id="node25" class="node">
<title>dec8c85d7a7640de82f43c8239a19037</title>
<image xlink:href="C:\Users\rites\AppData\Local\Programs\Python\Python312\Lib\site-packages\resources/aws/management\systems-manager.png" width="100.8px" height="100.8px" preserveAspectRatio="xMinYMin meet" x="997.7" y="-350.032"/>
<text xml:space="preserve" text-anchor="middle" x="1048.1" y="-233.93" font-family="Helvetica,sans-Serif" font-size="12.00" fill="#2d3436">SSM</text>
<text xml:space="preserve" text-anchor="middle" x="1048.1" y="-219.68" font-family="Helvetica,sans-Serif" font-size="12.00" fill="#2d3436">Management</text>
</g>
<!-- 1aba686fd7cf43c5abd29bcb093533f9&#45;&gt;dec8c85d7a7640de82f43c8239a19037 -->
<g id="edge26" class="edge">
<title>1aba686fd7cf43c5abd29bcb093533f9&#45;&gt;dec8c85d7a7640de82f43c8239a19037</title>
<path fill="none" stroke="#7b8894" stroke-dasharray="5,2" d="M385.04,-360.24C388.04,-353.39 390.78,-346.47 393.1,-339.63 409,-292.75 390.91,-152.31 428.1,-119.63 453.28,-97.51 697.32,-103.3 729.65,-112.13 828.76,-139.21 928.38,-206.05 988.91,-252.14"/>
<polygon fill="#7b8894" stroke="#7b8894" points="986.66,-254.82 996.72,-258.14 990.93,-249.27 986.66,-254.82"/>
<text xml:space="preserve" text-anchor="middle" x="709.03" y="-116.28" font-family="Sans-Serif" font-size="13.00" fill="#2d3436">SSM</text>
</g>
<!-- 50597eccbf544b9598f13de7add6fb5e -->
<g id="node4" class="node">
<title>50597eccbf544b9598f13de7add6fb5e</title>
<image xlink:href="C:\Users\rites\AppData\Local\Programs\Python\Python312\Lib\site-packages\resources/aws/compute\ec2.png" width="100.8px" height="100.8px" preserveAspectRatio="xMinYMin meet" x="24" y="-249.032"/>
<text xml:space="preserve" text-anchor="middle" x="74.4" y="-132.93" font-family="Helvetica,sans-Serif" font-size="12.00" fill="#2d3436">Optional</text>
<text xml:space="preserve" text-anchor="middle" x="74.4" y="-118.68" font-family="Helvetica,sans-Serif" font-size="12.00" fill="#2d3436">Test Workload</text>
</g>
<!-- fe140620c5e74b5abad3ad37737e3c06 -->
<g id="node5" class="node">
<title>fe140620c5e74b5abad3ad37737e3c06</title>
<image xlink:href="C:\Users\rites\AppData\Local\Programs\Python\Python312\Lib\site-packages\resources/aws/network\endpoint.png" width="100.8px" height="100.8px" preserveAspectRatio="xMinYMin meet" x="284.3" y="-238.032"/>
<text xml:space="preserve" text-anchor="middle" x="334.7" y="-121.78" font-family="Helvetica,sans-Serif" font-size="12.00" fill="#2d3436">SSM PrivateLink</text>
<text xml:space="preserve" text-anchor="middle" x="334.7" y="-107.53" font-family="Helvetica,sans-Serif" font-size="12.00" fill="#2d3436">ssm / ssmmessages</text>
<text xml:space="preserve" text-anchor="middle" x="334.7" y="-93.28" font-family="Helvetica,sans-Serif" font-size="12.00" fill="#2d3436">/ ec2messages</text>
</g>
<!-- 50597eccbf544b9598f13de7add6fb5e&#45;&gt;fe140620c5e74b5abad3ad37737e3c06 -->
<g id="edge30" class="edge">
<title>50597eccbf544b9598f13de7add6fb5e&#45;&gt;fe140620c5e74b5abad3ad37737e3c06</title>
<path fill="none" stroke="#7b8894" stroke-dasharray="1,5" d="M124.59,-196.54C166.87,-194.74 228,-192.13 273.26,-190.21"/>
<polygon fill="#7b8894" stroke="#7b8894" points="273.34,-193.71 283.18,-189.78 273.04,-186.71 273.34,-193.71"/>
</g>
<!-- 50597eccbf544b9598f13de7add6fb5e&#45;&gt;9b2e628153a448e78599b309f61fb129 -->
<g id="edge2" class="edge">
<title>50597eccbf544b9598f13de7add6fb5e&#45;&gt;9b2e628153a448e78599b309f61fb129</title>
<path fill="none" stroke="#7b8894" d="M118.07,-281.32C158.56,-359.35 221.59,-479.77 281.42,-589.35"/>
<polygon fill="#7b8894" stroke="#7b8894" points="278.24,-590.82 286.1,-597.91 284.38,-587.46 278.24,-590.82"/>
<text xml:space="preserve" text-anchor="middle" x="204.55" y="-512.5" font-family="Sans-Serif" font-size="13.00" fill="#2d3436">default route</text>
</g>
<!-- fe140620c5e74b5abad3ad37737e3c06&#45;&gt;dec8c85d7a7640de82f43c8239a19037 -->
<g id="edge27" class="edge">
<title>fe140620c5e74b5abad3ad37737e3c06&#45;&gt;dec8c85d7a7640de82f43c8239a19037</title>
<path fill="none" stroke="#7b8894" stroke-dasharray="5,2" d="M384.82,-134.3C397.79,-123.3 412.54,-113.11 428.1,-106.63 644.18,-16.7 762.43,22.83 954.7,-110.63 987.33,-133.28 1008.92,-170.8 1022.95,-206.47"/>
<polygon fill="#7b8894" stroke="#7b8894" points="1019.56,-207.41 1026.35,-215.54 1026.12,-204.95 1019.56,-207.41"/>
</g>
<!-- c45916ade15e47898d3d80a13d159a5f -->
<g id="node6" class="node">
<title>c45916ade15e47898d3d80a13d159a5f</title>
<image xlink:href="C:\Users\rites\AppData\Local\Programs\Python\Python312\Lib\site-packages\resources/aws/compute\ec2.png" width="100.8px" height="100.8px" preserveAspectRatio="xMinYMin meet" x="24" y="-951.032"/>
<text xml:space="preserve" text-anchor="middle" x="74.4" y="-834.93" font-family="Helvetica,sans-Serif" font-size="12.00" fill="#2d3436">Optional</text>
<text xml:space="preserve" text-anchor="middle" x="74.4" y="-820.68" font-family="Helvetica,sans-Serif" font-size="12.00" fill="#2d3436">Test Workload</text>
</g>
<!-- 439168b031e34102833fea4398ae63f6 -->
<g id="node7" class="node">
<title>439168b031e34102833fea4398ae63f6</title>
<image xlink:href="C:\Users\rites\AppData\Local\Programs\Python\Python312\Lib\site-packages\resources/aws/network\endpoint.png" width="100.8px" height="100.8px" preserveAspectRatio="xMinYMin meet" x="284.3" y="-958.032"/>
<text xml:space="preserve" text-anchor="middle" x="334.7" y="-841.78" font-family="Helvetica,sans-Serif" font-size="12.00" fill="#2d3436">SSM PrivateLink</text>
<text xml:space="preserve" text-anchor="middle" x="334.7" y="-827.53" font-family="Helvetica,sans-Serif" font-size="12.00" fill="#2d3436">ssm / ssmmessages</text>
<text xml:space="preserve" text-anchor="middle" x="334.7" y="-813.28" font-family="Helvetica,sans-Serif" font-size="12.00" fill="#2d3436">/ ec2messages</text>
</g>
<!-- c45916ade15e47898d3d80a13d159a5f&#45;&gt;439168b031e34102833fea4398ae63f6 -->
<g id="edge31" class="edge">
<title>c45916ade15e47898d3d80a13d159a5f&#45;&gt;439168b031e34102833fea4398ae63f6</title>
<path fill="none" stroke="#7b8894" stroke-dasharray="1,5" d="M124.59,-901.97C166.87,-903.11 228,-904.77 273.26,-905.99"/>
<polygon fill="#7b8894" stroke="#7b8894" points="273.09,-909.49 283.18,-906.26 273.28,-902.49 273.09,-909.49"/>
</g>
<!-- c45916ade15e47898d3d80a13d159a5f&#45;&gt;9b2e628153a448e78599b309f61fb129 -->
<g id="edge3" class="edge">
<title>c45916ade15e47898d3d80a13d159a5f&#45;&gt;9b2e628153a448e78599b309f61fb129</title>
<path fill="none" stroke="#7b8894" d="M124.59,-858.92C167.77,-822.32 230.61,-769.04 276.12,-730.45"/>
<polygon fill="#7b8894" stroke="#7b8894" points="278.17,-733.3 283.54,-724.16 273.65,-727.96 278.17,-733.3"/>
<text xml:space="preserve" text-anchor="middle" x="204.55" y="-821.34" font-family="Sans-Serif" font-size="13.00" fill="#2d3436">default route</text>
</g>
<!-- 439168b031e34102833fea4398ae63f6&#45;&gt;dec8c85d7a7640de82f43c8239a19037 -->
<g id="edge28" class="edge">
<title>439168b031e34102833fea4398ae63f6&#45;&gt;dec8c85d7a7640de82f43c8239a19037</title>
<path fill="none" stroke="#7b8894" stroke-dasharray="5,2" d="M384.96,-915.86C398.87,-917.83 414.04,-919.65 428.1,-920.63 476.27,-924 598.4,-931.7 645.4,-920.63 686.13,-911.04 699.58,-907.72 729.65,-878.63 904.32,-709.66 870.48,-609.4 989.7,-397.63 990.75,-395.76 991.82,-393.88 992.9,-391.98"/>
<polygon fill="#7b8894" stroke="#7b8894" points="995.7,-394.13 997.61,-383.71 989.62,-390.66 995.7,-394.13"/>
</g>
<!-- 522ac7072f2e404e8141dd1d3b9ce814 -->
<g id="node9" class="node">
<title>522ac7072f2e404e8141dd1d3b9ce814</title>
<image xlink:href="C:\Users\rites\AppData\Local\Programs\Python\Python312\Lib\site-packages\resources/aws/network\transit-gateway-attachment.png" width="100.8px" height="100.8px" preserveAspectRatio="xMinYMin meet" x="544.6" y="-863.032"/>
<text xml:space="preserve" text-anchor="middle" x="595" y="-746.93" font-family="Helvetica,sans-Serif" font-size="12.00" fill="#2d3436">Prod</text>
<text xml:space="preserve" text-anchor="middle" x="595" y="-732.68" font-family="Helvetica,sans-Serif" font-size="12.00" fill="#2d3436">attach</text>
</g>
<!-- 9b2e628153a448e78599b309f61fb129&#45;&gt;522ac7072f2e404e8141dd1d3b9ce814 -->
<g id="edge14" class="edge">
<title>9b2e628153a448e78599b309f61fb129&#45;&gt;522ac7072f2e404e8141dd1d3b9ce814</title>
<path fill="none" stroke="#7b8894" stroke-dasharray="5,2" d="M384.89,-706.58C427.62,-728.25 489.6,-759.69 534.99,-782.71"/>
<polygon fill="#7b8894" stroke="#7b8894" points="533.14,-785.69 543.64,-787.09 536.31,-779.45 533.14,-785.69"/>
<text xml:space="preserve" text-anchor="middle" x="464.85" y="-766.87" font-family="Sans-Serif" font-size="13.00" fill="#2d3436">cross&#45;VPC</text>
</g>
<!-- ed0129fcc55348afa8ba0c92219b0c6c -->
<g id="node10" class="node">
<title>ed0129fcc55348afa8ba0c92219b0c6c</title>
<image xlink:href="C:\Users\rites\AppData\Local\Programs\Python\Python312\Lib\site-packages\resources/aws/network\transit-gateway-attachment.png" width="100.8px" height="100.8px" preserveAspectRatio="xMinYMin meet" x="544.6" y="-278.032"/>
<text xml:space="preserve" text-anchor="middle" x="595" y="-161.93" font-family="Helvetica,sans-Serif" font-size="12.00" fill="#2d3436">Dev</text>
<text xml:space="preserve" text-anchor="middle" x="595" y="-147.68" font-family="Helvetica,sans-Serif" font-size="12.00" fill="#2d3436">attach</text>
</g>
<!-- 9b2e628153a448e78599b309f61fb129&#45;&gt;ed0129fcc55348afa8ba0c92219b0c6c -->
<g id="edge15" class="edge">
<title>9b2e628153a448e78599b309f61fb129&#45;&gt;ed0129fcc55348afa8ba0c92219b0c6c</title>
<path fill="none" stroke="#7b8894" stroke-dasharray="5,2" d="M384.86,-609.09C387.73,-604.25 390.51,-599.4 393.1,-594.63 411.63,-560.53 410.64,-549.29 428.1,-514.63 471.69,-428.14 488.01,-409.42 536.6,-325.63 537.69,-323.75 538.8,-321.84 539.92,-319.92"/>
<polygon fill="#7b8894" stroke="#7b8894" points="542.8,-321.92 544.8,-311.52 536.75,-318.4 542.8,-321.92"/>
</g>
<!-- 3bae448de1da41629929bca4f0a94564 -->
<g id="node11" class="node">
<title>3bae448de1da41629929bca4f0a94564</title>
<image xlink:href="C:\Users\rites\AppData\Local\Programs\Python\Python312\Lib\site-packages\resources/aws/network\transit-gateway-attachment.png" width="100.8px" height="100.8px" preserveAspectRatio="xMinYMin meet" x="544.6" y="-473.032"/>
<text xml:space="preserve" text-anchor="middle" x="595" y="-356.93" font-family="Helvetica,sans-Serif" font-size="12.00" fill="#2d3436">Shared</text>
<text xml:space="preserve" text-anchor="middle" x="595" y="-342.68" font-family="Helvetica,sans-Serif" font-size="12.00" fill="#2d3436">attach</text>
</g>
<!-- 9b2e628153a448e78599b309f61fb129&#45;&gt;3bae448de1da41629929bca4f0a94564 -->
<g id="edge16" class="edge">
<title>9b2e628153a448e78599b309f61fb129&#45;&gt;3bae448de1da41629929bca4f0a94564</title>
<path fill="none" stroke="#7b8894" stroke-dasharray="5,2" d="M384.89,-632.31C428.25,-588.83 491.43,-525.48 536.98,-479.8"/>
<polygon fill="#7b8894" stroke="#7b8894" points="539.34,-482.4 543.92,-472.85 534.38,-477.46 539.34,-482.4"/>
</g>
<!-- bfa55d749e264cf7b64fd30c2574a3ee -->
<g id="node12" class="node">
<title>bfa55d749e264cf7b64fd30c2574a3ee</title>
<image xlink:href="C:\Users\rites\AppData\Local\Programs\Python\Python312\Lib\site-packages\resources/aws/network\transit-gateway-attachment.png" width="100.8px" height="100.8px" preserveAspectRatio="xMinYMin meet" x="544.6" y="-668.032"/>
<text xml:space="preserve" text-anchor="middle" x="595" y="-551.93" font-family="Helvetica,sans-Serif" font-size="12.00" fill="#2d3436">Insp</text>
<text xml:space="preserve" text-anchor="middle" x="595" y="-537.68" font-family="Helvetica,sans-Serif" font-size="12.00" fill="#2d3436">attach</text>
</g>
<!-- 9b2e628153a448e78599b309f61fb129&#45;&gt;bfa55d749e264cf7b64fd30c2574a3ee -->
<g id="edge4" class="edge">
<title>9b2e628153a448e78599b309f61fb129&#45;&gt;bfa55d749e264cf7b64fd30c2574a3ee</title>
<path fill="none" stroke="#7b8894" d="M384.89,-669.44C427.26,-658.95 488.56,-643.76 533.84,-632.54"/>
<polygon fill="#7b8894" stroke="#7b8894" points="534.66,-635.94 543.52,-630.14 532.97,-629.15 534.66,-635.94"/>
<text xml:space="preserve" text-anchor="middle" x="464.85" y="-661.4" font-family="Sans-Serif" font-size="13.00" fill="#2d3436">to inspection</text>
</g>
<!-- d43f961da16849edab5beeac51a65c5d -->
<g id="node14" class="node">
<title>d43f961da16849edab5beeac51a65c5d</title>
<image xlink:href="C:\Users\rites\AppData\Local\Programs\Python\Python312\Lib\site-packages\resources/aws/network\network-firewall.png" width="100.8px" height="100.8px" preserveAspectRatio="xMinYMin meet" x="772.65" y="-1084.03"/>
<text xml:space="preserve" text-anchor="middle" x="823.05" y="-967.93" font-family="Helvetica,sans-Serif" font-size="12.00" fill="#2d3436">NFW</text>
<text xml:space="preserve" text-anchor="middle" x="823.05" y="-953.68" font-family="Helvetica,sans-Serif" font-size="12.00" fill="#2d3436">Endpoint</text>
</g>
<!-- bfa55d749e264cf7b64fd30c2574a3ee&#45;&gt;d43f961da16849edab5beeac51a65c5d -->
<g id="edge5" class="edge">
<title>bfa55d749e264cf7b64fd30c2574a3ee&#45;&gt;d43f961da16849edab5beeac51a65c5d</title>
<path fill="none" stroke="#7b8894" d="M645.39,-641.51C673.87,-657.64 708.18,-681.47 729.65,-711.63 777.73,-779.18 800.92,-871.35 812.02,-939.78"/>
<polygon fill="#7b8894" stroke="#7b8894" points="808.54,-940.14 813.54,-949.48 815.45,-939.06 808.54,-940.14"/>
<text xml:space="preserve" text-anchor="middle" x="709.03" y="-732.28" font-family="Sans-Serif" font-size="13.00" fill="#2d3436">per&#45;AZ</text>
<text xml:space="preserve" text-anchor="middle" x="709.03" y="-715.78" font-family="Sans-Serif" font-size="13.00" fill="#2d3436">firewall</text>
</g>
<!-- 86908c02834f44ba94c40c86c9700bc8 -->
<g id="node17" class="node">
<title>86908c02834f44ba94c40c86c9700bc8</title>
<image xlink:href="C:\Users\rites\AppData\Local\Programs\Python\Python312\Lib\site-packages\resources/aws/network\network-firewall.png" width="100.8px" height="100.8px" preserveAspectRatio="xMinYMin meet" x="772.65" y="-1298.03"/>
<text xml:space="preserve" text-anchor="middle" x="823.05" y="-1181.93" font-family="Helvetica,sans-Serif" font-size="12.00" fill="#2d3436">NFW</text>
<text xml:space="preserve" text-anchor="middle" x="823.05" y="-1167.68" font-family="Helvetica,sans-Serif" font-size="12.00" fill="#2d3436">Endpoint</text>
</g>
<!-- bfa55d749e264cf7b64fd30c2574a3ee&#45;&gt;86908c02834f44ba94c40c86c9700bc8 -->
<g id="edge6" class="edge">
<title>bfa55d749e264cf7b64fd30c2574a3ee&#45;&gt;86908c02834f44ba94c40c86c9700bc8</title>
<path fill="none" stroke="#7b8894" d="M637.93,-700.43C640.47,-705.57 642.98,-710.67 645.4,-715.63 683.91,-794.68 704.79,-810.29 729.65,-894.63 762.74,-1006.9 725.01,-1045.51 764.65,-1155.63 765.68,-1158.48 766.8,-1161.34 768,-1164.18"/>
<polygon fill="#7b8894" stroke="#7b8894" points="764.72,-1165.43 772.06,-1173.07 771.09,-1162.52 764.72,-1165.43"/>
<text xml:space="preserve" text-anchor="middle" x="709.03" y="-915.28" font-family="Sans-Serif" font-size="13.00" fill="#2d3436">per&#45;AZ</text>
<text xml:space="preserve" text-anchor="middle" x="709.03" y="-898.78" font-family="Sans-Serif" font-size="13.00" fill="#2d3436">firewall</text>
</g>
<!-- a729df810ebe491aa94995e2a14f8735 -->
<g id="node13" class="node">
<title>a729df810ebe491aa94995e2a14f8735</title>
<image xlink:href="C:\Users\rites\AppData\Local\Programs\Python\Python312\Lib\site-packages\resources/aws/network\internet-gateway.png" width="100.8px" height="100.8px" preserveAspectRatio="xMinYMin meet" x="1437.3" y="-1191.03"/>
<text xml:space="preserve" text-anchor="middle" x="1487.7" y="-1074.93" font-family="Helvetica,sans-Serif" font-size="12.00" fill="#2d3436">Internet</text>
<text xml:space="preserve" text-anchor="middle" x="1487.7" y="-1060.68" font-family="Helvetica,sans-Serif" font-size="12.00" fill="#2d3436">Gateway</text>
</g>
<!-- a729df810ebe491aa94995e2a14f8735&#45;&gt;0ac075800cd84596857a25d9588fb0fe -->
<g id="edge13" class="edge">
<title>a729df810ebe491aa94995e2a14f8735&#45;&gt;0ac075800cd84596857a25d9588fb0fe</title>
<path fill="none" stroke="#7b8894" d="M1538.04,-1140.63C1571.28,-1140.63 1615.33,-1140.63 1650.66,-1140.63"/>
<polygon fill="#7b8894" stroke="#7b8894" points="1650.29,-1144.13 1660.29,-1140.63 1650.29,-1137.13 1650.29,-1144.13"/>
<text xml:space="preserve" text-anchor="middle" x="1599.85" y="-1144.78" font-family="Sans-Serif" font-size="13.00" fill="#2d3436">egress</text>
</g>
<!-- 4e78d169db0c4789ba32b093b15499b0 -->
<g id="node15" class="node">
<title>4e78d169db0c4789ba32b093b15499b0</title>
<image xlink:href="C:\Users\rites\AppData\Local\Programs\Python\Python312\Lib\site-packages\resources/aws/network\nat-gateway.png" width="100.8px" height="100.8px" preserveAspectRatio="xMinYMin meet" x="997.7" y="-1084.03"/>
<text xml:space="preserve" text-anchor="middle" x="1048.1" y="-967.93" font-family="Helvetica,sans-Serif" font-size="12.00" fill="#2d3436">NAT</text>
<text xml:space="preserve" text-anchor="middle" x="1048.1" y="-953.68" font-family="Helvetica,sans-Serif" font-size="12.00" fill="#2d3436">Gateway</text>
</g>
<!-- d43f961da16849edab5beeac51a65c5d&#45;&gt;4e78d169db0c4789ba32b093b15499b0 -->
<g id="edge7" class="edge">
<title>d43f961da16849edab5beeac51a65c5d&#45;&gt;4e78d169db0c4789ba32b093b15499b0</title>
<path fill="none" stroke="#7b8894" d="M873.28,-1033.63C906.73,-1033.63 951.2,-1033.63 986.78,-1033.63"/>
<polygon fill="#7b8894" stroke="#7b8894" points="986.49,-1037.13 996.49,-1033.63 986.49,-1030.13 986.49,-1037.13"/>
<text xml:space="preserve" text-anchor="middle" x="935.58" y="-1054.28" font-family="Sans-Serif" font-size="13.00" fill="#2d3436">per&#45;AZ</text>
<text xml:space="preserve" text-anchor="middle" x="935.58" y="-1037.78" font-family="Sans-Serif" font-size="13.00" fill="#2d3436">NAT</text>
</g>
<!-- 148d652610d64ae5bd061910a244c2c9 -->
<g id="node21" class="node">
<title>148d652610d64ae5bd061910a244c2c9</title>
<image xlink:href="C:\Users\rites\AppData\Local\Programs\Python\Python312\Lib\site-packages\resources/aws/management\cloudwatch-logs.png" width="100.8px" height="100.8px" preserveAspectRatio="xMinYMin meet" x="1208.5" y="-740.032"/>
<text xml:space="preserve" text-anchor="middle" x="1258.9" y="-623.93" font-family="Helvetica,sans-Serif" font-size="12.00" fill="#2d3436">CW</text>
<text xml:space="preserve" text-anchor="middle" x="1258.9" y="-609.68" font-family="Helvetica,sans-Serif" font-size="12.00" fill="#2d3436">ALERT logs</text>
</g>
<!-- d43f961da16849edab5beeac51a65c5d&#45;&gt;148d652610d64ae5bd061910a244c2c9 -->
<g id="edge19" class="edge">
<title>d43f961da16849edab5beeac51a65c5d&#45;&gt;148d652610d64ae5bd061910a244c2c9</title>
<path fill="none" stroke="#7b8894" stroke-dasharray="1,5" d="M845.82,-951.15C859.99,-912.45 882.36,-868.77 916.45,-840.63 930,-829.45 937.8,-835.43 954.7,-830.63 1019,-812.4 1037.52,-814 1098.5,-786.63 1133.44,-770.95 1170.1,-749.07 1199.44,-730.06"/>
<polygon fill="#7b8894" stroke="#7b8894" points="1200.98,-733.24 1207.43,-724.83 1197.14,-727.38 1200.98,-733.24"/>
<text xml:space="preserve" text-anchor="middle" x="1048.1" y="-825.43" font-family="Sans-Serif" font-size="13.00" fill="#2d3436">ALERT</text>
</g>
<!-- ca19d181ea894a8782fd0e7b7e299e7d -->
<g id="node22" class="node">
<title>ca19d181ea894a8782fd0e7b7e299e7d</title>
<image xlink:href="C:\Users\rites\AppData\Local\Programs\Python\Python312\Lib\site-packages\resources/aws/storage\simple-storage-service-s3.png" width="100.8px" height="100.8px" preserveAspectRatio="xMinYMin meet" x="997.7" y="-545.032"/>
<text xml:space="preserve" text-anchor="middle" x="1048.1" y="-428.93" font-family="Helvetica,sans-Serif" font-size="12.00" fill="#2d3436">NFW FLOW</text>
<text xml:space="preserve" text-anchor="middle" x="1048.1" y="-414.68" font-family="Helvetica,sans-Serif" font-size="12.00" fill="#2d3436">Log Archive</text>
</g>
<!-- d43f961da16849edab5beeac51a65c5d&#45;&gt;ca19d181ea894a8782fd0e7b7e299e7d -->
<g id="edge21" class="edge">
<title>d43f961da16849edab5beeac51a65c5d&#45;&gt;ca19d181ea894a8782fd0e7b7e299e7d</title>
<path fill="none" stroke="#7b8894" stroke-dasharray="1,5" d="M847.6,-950.94C862.74,-906.74 885.45,-852.97 916.45,-811.13 929.56,-793.44 943.5,-798.6 954.7,-779.63 997.7,-706.83 960.12,-671.84 989.7,-592.63 990.76,-589.79 991.91,-586.93 993.11,-584.07"/>
<polygon fill="#7b8894" stroke="#7b8894" points="996.23,-585.67 997.14,-575.12 989.85,-582.8 996.23,-585.67"/>
<text xml:space="preserve" text-anchor="middle" x="935.58" y="-815.28" font-family="Sans-Serif" font-size="13.00" fill="#2d3436">FLOW</text>
</g>
<!-- 167659cb5c8b4652a851eb3dbcb2892f -->
<g id="node16" class="node">
<title>167659cb5c8b4652a851eb3dbcb2892f</title>
<image xlink:href="C:\Users\rites\AppData\Local\Programs\Python\Python312\Lib\site-packages\resources/aws/network\public-subnet.png" width="100.8px" height="100.8px" preserveAspectRatio="xMinYMin meet" x="1208.5" y="-1084.03"/>
<text xml:space="preserve" text-anchor="middle" x="1258.9" y="-967.93" font-family="Helvetica,sans-Serif" font-size="12.00" fill="#2d3436">Public</text>
<text xml:space="preserve" text-anchor="middle" x="1258.9" y="-953.68" font-family="Helvetica,sans-Serif" font-size="12.00" fill="#2d3436">subnet</text>
</g>
<!-- 4e78d169db0c4789ba32b093b15499b0&#45;&gt;167659cb5c8b4652a851eb3dbcb2892f -->
<g id="edge9" class="edge">
<title>4e78d169db0c4789ba32b093b15499b0&#45;&gt;167659cb5c8b4652a851eb3dbcb2892f</title>
<path fill="none" stroke="#7b8894" d="M1098.32,-1033.63C1127.96,-1033.63 1165.92,-1033.63 1197.38,-1033.63"/>
<polygon fill="#7b8894" stroke="#7b8894" points="1197.14,-1037.13 1207.14,-1033.63 1197.14,-1030.13 1197.14,-1037.13"/>
</g>
<!-- 167659cb5c8b4652a851eb3dbcb2892f&#45;&gt;a729df810ebe491aa94995e2a14f8735 -->
<g id="edge11" class="edge">
<title>167659cb5c8b4652a851eb3dbcb2892f&#45;&gt;a729df810ebe491aa94995e2a14f8735</title>
<path fill="none" stroke="#7b8894" d="M1309.11,-1056.85C1343.88,-1073.25 1390.66,-1095.32 1427.48,-1112.69"/>
<polygon fill="#7b8894" stroke="#7b8894" points="1425.68,-1115.71 1436.21,-1116.81 1428.66,-1109.38 1425.68,-1115.71"/>
</g>
<!-- cf507e3355354778a90dbe6fa776ae3f -->
<g id="node18" class="node">
<title>cf507e3355354778a90dbe6fa776ae3f</title>
<image xlink:href="C:\Users\rites\AppData\Local\Programs\Python\Python312\Lib\site-packages\resources/aws/network\nat-gateway.png" width="100.8px" height="100.8px" preserveAspectRatio="xMinYMin meet" x="997.7" y="-1298.03"/>
<text xml:space="preserve" text-anchor="middle" x="1048.1" y="-1181.93" font-family="Helvetica,sans-Serif" font-size="12.00" fill="#2d3436">NAT</text>
<text xml:space="preserve" text-anchor="middle" x="1048.1" y="-1167.68" font-family="Helvetica,sans-Serif" font-size="12.00" fill="#2d3436">Gateway</text>
</g>
<!-- 86908c02834f44ba94c40c86c9700bc8&#45;&gt;cf507e3355354778a90dbe6fa776ae3f -->
<g id="edge8" class="edge">
<title>86908c02834f44ba94c40c86c9700bc8&#45;&gt;cf507e3355354778a90dbe6fa776ae3f</title>
<path fill="none" stroke="#7b8894" d="M873.28,-1247.63C906.73,-1247.63 951.2,-1247.63 986.78,-1247.63"/>
<polygon fill="#7b8894" stroke="#7b8894" points="986.49,-1251.13 996.49,-1247.63 986.49,-1244.13 986.49,-1251.13"/>
<text xml:space="preserve" text-anchor="middle" x="935.58" y="-1268.28" font-family="Sans-Serif" font-size="13.00" fill="#2d3436">per&#45;AZ</text>
<text xml:space="preserve" text-anchor="middle" x="935.58" y="-1251.78" font-family="Sans-Serif" font-size="13.00" fill="#2d3436">NAT</text>
</g>
<!-- 86908c02834f44ba94c40c86c9700bc8&#45;&gt;148d652610d64ae5bd061910a244c2c9 -->
<g id="edge20" class="edge">
<title>86908c02834f44ba94c40c86c9700bc8&#45;&gt;148d652610d64ae5bd061910a244c2c9</title>
<path fill="none" stroke="#7b8894" stroke-dasharray="1,5" d="M869.91,-1164.9C871.17,-1161.8 872.35,-1158.71 873.45,-1155.63 906.95,-1061.8 856.15,-1014.94 916.45,-935.63 943.83,-899.63 1061.62,-870.82 1098.5,-844.63 1135.47,-818.38 1172.07,-783.59 1200.86,-753.62"/>
<polygon fill="#7b8894" stroke="#7b8894" points="1203.36,-756.06 1207.72,-746.4 1198.29,-751.24 1203.36,-756.06"/>
<text xml:space="preserve" text-anchor="middle" x="1048.1" y="-895.64" font-family="Sans-Serif" font-size="13.00" fill="#2d3436">ALERT</text>
</g>
<!-- 86908c02834f44ba94c40c86c9700bc8&#45;&gt;ca19d181ea894a8782fd0e7b7e299e7d -->
<g id="edge22" class="edge">
<title>86908c02834f44ba94c40c86c9700bc8&#45;&gt;ca19d181ea894a8782fd0e7b7e299e7d</title>
<path fill="none" stroke="#7b8894" stroke-dasharray="1,5" d="M870.06,-1164.95C871.27,-1161.84 872.41,-1158.73 873.45,-1155.63 912.77,-1038.57 865.89,-993.79 916.45,-881.13 927.41,-856.72 943.89,-859.11 954.7,-834.63 998.62,-735.23 953.79,-695.2 989.7,-592.63 990.77,-589.58 991.94,-586.51 993.19,-583.45"/>
<polygon fill="#7b8894" stroke="#7b8894" points="996.32,-585.03 997.12,-574.46 989.9,-582.22 996.32,-585.03"/>
<text xml:space="preserve" text-anchor="middle" x="935.58" y="-885.28" font-family="Sans-Serif" font-size="13.00" fill="#2d3436">FLOW</text>
</g>
<!-- 3ea5d56f7c754876b1f4ec474732ed64 -->
<g id="node19" class="node">
<title>3ea5d56f7c754876b1f4ec474732ed64</title>
<image xlink:href="C:\Users\rites\AppData\Local\Programs\Python\Python312\Lib\site-packages\resources/aws/network\public-subnet.png" width="100.8px" height="100.8px" preserveAspectRatio="xMinYMin meet" x="1208.5" y="-1298.03"/>
<text xml:space="preserve" text-anchor="middle" x="1258.9" y="-1181.93" font-family="Helvetica,sans-Serif" font-size="12.00" fill="#2d3436">Public</text>
<text xml:space="preserve" text-anchor="middle" x="1258.9" y="-1167.68" font-family="Helvetica,sans-Serif" font-size="12.00" fill="#2d3436">subnet</text>
</g>
<!-- cf507e3355354778a90dbe6fa776ae3f&#45;&gt;3ea5d56f7c754876b1f4ec474732ed64 -->
<g id="edge10" class="edge">
<title>cf507e3355354778a90dbe6fa776ae3f&#45;&gt;3ea5d56f7c754876b1f4ec474732ed64</title>
<path fill="none" stroke="#7b8894" d="M1098.32,-1247.63C1127.96,-1247.63 1165.92,-1247.63 1197.38,-1247.63"/>
<polygon fill="#7b8894" stroke="#7b8894" points="1197.14,-1251.13 1207.14,-1247.63 1197.14,-1244.13 1197.14,-1251.13"/>
</g>
<!-- 3ea5d56f7c754876b1f4ec474732ed64&#45;&gt;a729df810ebe491aa94995e2a14f8735 -->
<g id="edge12" class="edge">
<title>3ea5d56f7c754876b1f4ec474732ed64&#45;&gt;a729df810ebe491aa94995e2a14f8735</title>
<path fill="none" stroke="#7b8894" d="M1309.11,-1224.41C1343.88,-1208.01 1390.66,-1185.94 1427.48,-1168.57"/>
<polygon fill="#7b8894" stroke="#7b8894" points="1428.66,-1171.88 1436.21,-1164.45 1425.68,-1165.55 1428.66,-1171.88"/>
</g>
<!-- 916911bd62ee4f7b92da66ca83930b11 -->
<g id="node20" class="node">
<title>916911bd62ee4f7b92da66ca83930b11</title>
<image xlink:href="C:\Users\rites\AppData\Local\Programs\Python\Python312\Lib\site-packages\resources/aws/general\generic-firewall.png" width="100.8px" height="100.8px" preserveAspectRatio="xMinYMin meet" x="544.6" y="-1191.03"/>
<text xml:space="preserve" text-anchor="middle" x="595" y="-1074.78" font-family="Helvetica,sans-Serif" font-size="12.00" fill="#2d3436">Firewall Policy</text>
<text xml:space="preserve" text-anchor="middle" x="595" y="-1060.53" font-family="Helvetica,sans-Serif" font-size="12.00" fill="#2d3436">+ Stateful/Stateless</text>
<text xml:space="preserve" text-anchor="middle" x="595" y="-1046.28" font-family="Helvetica,sans-Serif" font-size="12.00" fill="#2d3436">Rule Groups</text>
</g>
<!-- 916911bd62ee4f7b92da66ca83930b11&#45;&gt;d43f961da16849edab5beeac51a65c5d -->
<g id="edge17" class="edge">
<title>916911bd62ee4f7b92da66ca83930b11&#45;&gt;d43f961da16849edab5beeac51a65c5d</title>
<path fill="none" stroke="#7b8894" stroke-dasharray="1,5" d="M645.33,-1117.28C679.88,-1100.93 726.23,-1078.99 762.79,-1061.68"/>
<polygon fill="#7b8894" stroke="#7b8894" points="763.92,-1065.02 771.46,-1057.58 760.92,-1058.69 763.92,-1065.02"/>
<text xml:space="preserve" text-anchor="middle" x="709.03" y="-1100.87" font-family="Sans-Serif" font-size="13.00" fill="#2d3436">policy</text>
</g>
<!-- 916911bd62ee4f7b92da66ca83930b11&#45;&gt;86908c02834f44ba94c40c86c9700bc8 -->
<g id="edge18" class="edge">
<title>916911bd62ee4f7b92da66ca83930b11&#45;&gt;86908c02834f44ba94c40c86c9700bc8</title>
<path fill="none" stroke="#7b8894" stroke-dasharray="1,5" d="M645.33,-1163.98C679.88,-1180.34 726.23,-1202.28 762.79,-1219.58"/>
<polygon fill="#7b8894" stroke="#7b8894" points="760.92,-1222.57 771.46,-1223.69 763.92,-1216.24 760.92,-1222.57"/>
</g>
<!-- bda14df2d9b64891b4edd8bf77a2110c -->
<g id="node23" class="node">
<title>bda14df2d9b64891b4edd8bf77a2110c</title>
<image xlink:href="C:\Users\rites\AppData\Local\Programs\Python\Python312\Lib\site-packages\resources/aws/management\cloudwatch.png" width="100.8px" height="100.8px" preserveAspectRatio="xMinYMin meet" x="1437.3" y="-545.032"/>
<text xml:space="preserve" text-anchor="middle" x="1487.7" y="-428.93" font-family="Helvetica,sans-Serif" font-size="12.00" fill="#2d3436">CW</text>
<text xml:space="preserve" text-anchor="middle" x="1487.7" y="-414.68" font-family="Helvetica,sans-Serif" font-size="12.00" fill="#2d3436">Dashboard</text>
</g>
<!-- 148d652610d64ae5bd061910a244c2c9&#45;&gt;bda14df2d9b64891b4edd8bf77a2110c -->
<g id="edge24" class="edge">
<title>148d652610d64ae5bd061910a244c2c9&#45;&gt;bda14df2d9b64891b4edd8bf77a2110c</title>
<path fill="none" stroke="#7b8894" d="M1309.11,-647.32C1344.33,-617.04 1391.87,-576.17 1428.89,-544.33"/>
<polygon fill="#7b8894" stroke="#7b8894" points="1431.14,-547.02 1436.44,-537.85 1426.57,-541.71 1431.14,-547.02"/>
<text xml:space="preserve" text-anchor="middle" x="1373.3" y="-613.75" font-family="Sans-Serif" font-size="13.00" fill="#2d3436">metrics</text>
</g>
<!-- ace2a662fb5249cd9f947980eefcda94 -->
<g id="node24" class="node">
<title>ace2a662fb5249cd9f947980eefcda94</title>
<image xlink:href="C:\Users\rites\AppData\Local\Programs\Python\Python312\Lib\site-packages\resources/aws/management\cloudwatch-alarm.png" width="100.8px" height="100.8px" preserveAspectRatio="xMinYMin meet" x="1437.3" y="-740.032"/>
<text xml:space="preserve" text-anchor="middle" x="1487.7" y="-623.93" font-family="Helvetica,sans-Serif" font-size="12.00" fill="#2d3436">Metric</text>
<text xml:space="preserve" text-anchor="middle" x="1487.7" y="-609.68" font-family="Helvetica,sans-Serif" font-size="12.00" fill="#2d3436">Alarms</text>
</g>
<!-- 148d652610d64ae5bd061910a244c2c9&#45;&gt;ace2a662fb5249cd9f947980eefcda94 -->
<g id="edge25" class="edge">
<title>148d652610d64ae5bd061910a244c2c9&#45;&gt;ace2a662fb5249cd9f947980eefcda94</title>
<path fill="none" stroke="#7b8894" d="M1309.11,-689.63C1343.59,-689.63 1389.87,-689.63 1426.54,-689.63"/>
<polygon fill="#7b8894" stroke="#7b8894" points="1426.07,-693.13 1436.07,-689.63 1426.07,-686.13 1426.07,-693.13"/>
<text xml:space="preserve" text-anchor="middle" x="1373.3" y="-693.78" font-family="Sans-Serif" font-size="13.00" fill="#2d3436">filter</text>
</g>
<!-- 848296fd6aa444f2818f939b902574ba -->
<g id="node26" class="node">
<title>848296fd6aa444f2818f939b902574ba</title>
<image xlink:href="C:\Users\rites\AppData\Local\Programs\Python\Python312\Lib\site-packages\resources/aws/network\vpc-flow-logs.png" width="100.8px" height="100.8px" preserveAspectRatio="xMinYMin meet" x="997.7" y="-740.032"/>
<text xml:space="preserve" text-anchor="middle" x="1048.1" y="-623.93" font-family="Helvetica,sans-Serif" font-size="12.00" fill="#2d3436">VPC</text>
<text xml:space="preserve" text-anchor="middle" x="1048.1" y="-609.68" font-family="Helvetica,sans-Serif" font-size="12.00" fill="#2d3436">Flow Logs</text>
</g>
<!-- 848296fd6aa444f2818f939b902574ba&#45;&gt;148d652610d64ae5bd061910a244c2c9 -->
<g id="edge23" class="edge">
<title>848296fd6aa444f2818f939b902574ba&#45;&gt;148d652610d64ae5bd061910a244c2c9</title>
<path fill="none" stroke="#7b8894" stroke-dasharray="1,5" d="M1098.32,-689.63C1127.96,-689.63 1165.92,-689.63 1197.38,-689.63"/>
<polygon fill="#7b8894" stroke="#7b8894" points="1197.14,-693.13 1207.14,-689.63 1197.14,-686.13 1197.14,-693.13"/>
<text xml:space="preserve" text-anchor="middle" x="1153.5" y="-693.78" font-family="Sans-Serif" font-size="13.00" fill="#2d3436">flow</text>
</g>
</g>
</svg>
